<svg width="54" height="21" viewBox="0 0 54 21" fill="none" xmlns="http://www.w3.org/2000/svg">
<path d="M2.144 6.538C2.60333 6.538 2.99333 6.49033 3.314 6.395C3.63467 6.291 3.89467 6.11767 4.094 5.875C4.302 5.62367 4.44933 5.28567 4.536 4.861H5.472V14H4.302V7.5H2.144V6.538ZM9.39211 9.593C9.39211 7.98967 9.66078 6.772 10.1981 5.94C10.7354 5.108 11.5198 4.692 12.5511 4.692C13.5391 4.692 14.2931 5.082 14.8131 5.862C15.3331 6.642 15.5931 7.76867 15.5931 9.242C15.5931 10.828 15.3244 12.0457 14.7871 12.895C14.2498 13.7443 13.4784 14.169 12.4731 14.169C11.9791 14.169 11.5458 14.0693 11.1731 13.87C10.7918 13.688 10.4668 13.402 10.1981 13.012C9.92944 12.622 9.72578 12.141 9.58711 11.569C9.52644 11.257 9.47878 10.945 9.44411 10.633C9.40944 10.321 9.39211 9.97433 9.39211 9.593ZM10.6401 9.528C10.6401 11.842 11.2511 12.999 12.4731 12.999C13.0711 12.999 13.5304 12.6913 13.8511 12.076C14.1804 11.4607 14.3451 10.5377 14.3451 9.307C14.3451 7.01033 13.7384 5.862 12.5251 5.862C11.2684 5.862 10.6401 7.084 10.6401 9.528ZM22.4768 6.538C22.9361 6.538 23.3261 6.49033 23.6468 6.395C23.9675 6.291 24.2275 6.11767 24.4268 5.875C24.6348 5.62367 24.7821 5.28567 24.8688 4.861H25.8048V14H24.6348V7.5H22.4768V6.538ZM30.4139 6.538C30.8733 6.538 31.2633 6.49033 31.5839 6.395C31.9046 6.291 32.1646 6.11767 32.3639 5.875C32.5719 5.62367 32.7193 5.28567 32.8059 4.861H33.7419V14H32.5719V7.5H30.4139V6.538ZM37.883 11.699H39.053C39.1397 12.1323 39.3044 12.4573 39.547 12.674C39.7897 12.8907 40.1277 12.999 40.561 12.999C41.2804 12.999 41.7787 12.6827 42.056 12.05C42.3334 11.4087 42.537 10.607 42.667 9.645C42.225 10.4423 41.5057 10.841 40.509 10.841C39.6597 10.841 38.975 10.568 38.455 10.022C37.9437 9.476 37.688 8.761 37.688 7.877C37.688 6.941 37.961 6.17833 38.507 5.589C39.053 4.991 39.768 4.692 40.652 4.692C41.7007 4.692 42.4894 5.069 43.018 5.823C43.5467 6.577 43.811 7.67767 43.811 9.125C43.811 10.7197 43.5207 11.959 42.94 12.843C42.3594 13.727 41.5577 14.169 40.535 14.169C39.755 14.169 39.1354 13.9567 38.676 13.532C38.2254 13.1073 37.961 12.4963 37.883 11.699ZM38.923 7.76C38.923 8.34933 39.0747 8.81733 39.378 9.164C39.69 9.502 40.1147 9.671 40.652 9.671C41.1807 9.671 41.601 9.50633 41.913 9.177C42.2337 8.839 42.394 8.397 42.394 7.851C42.394 7.26167 42.2424 6.785 41.939 6.421C41.6357 6.04833 41.2154 5.862 40.678 5.862C40.1494 5.862 39.7247 6.03533 39.404 6.382C39.0834 6.72867 38.923 7.188 38.923 7.76Z" fill="#AFAFAF"/>
<g clip-path="url(#clip0_10077_802)">
<path d="M52.5188 7.79332C52.5188 7.36719 52.3833 7.02202 52.1125 6.75781C51.8417 6.49361 51.4854 6.36151 51.0438 6.36151H49.0438V9.22514H51.0438C51.4854 9.22514 51.8417 9.09304 52.1125 8.82884C52.3833 8.56463 52.5188 8.21946 52.5188 7.79332ZM54 7.79332C54 8.61577 53.7365 9.28693 53.2094 9.80682C52.6823 10.3267 52.0021 10.5866 51.1688 10.5866H49.0438V11.3409H52.2C52.2583 11.3409 52.3063 11.3601 52.3438 11.3984C52.3812 11.4368 52.4 11.4858 52.4 11.5455V12.3636C52.4 12.4233 52.3812 12.4723 52.3438 12.5107C52.3063 12.549 52.2583 12.5682 52.2 12.5682H49.0438V13.7955C49.0438 13.8551 49.024 13.9041 48.9844 13.9425C48.9448 13.9808 48.8979 14 48.8438 14H47.8C47.7417 14 47.6938 13.9808 47.6562 13.9425C47.6187 13.9041 47.6 13.8551 47.6 13.7955V12.5682H46.2C46.1417 12.5682 46.0938 12.549 46.0563 12.5107C46.0188 12.4723 46 12.4233 46 12.3636V11.5455C46 11.4858 46.0188 11.4368 46.0563 11.3984C46.0938 11.3601 46.1417 11.3409 46.2 11.3409H47.6V10.5866H46.2C46.1417 10.5866 46.0938 10.5675 46.0563 10.5291C46.0188 10.4908 46 10.4418 46 10.3821V9.42969C46 9.37429 46.0188 9.32635 46.0563 9.28587C46.0938 9.24538 46.1417 9.22514 46.2 9.22514H47.6V5.20455C47.6 5.14489 47.6187 5.09588 47.6562 5.05753C47.6938 5.01918 47.7417 5 47.8 5H51.1688C52.0021 5 52.6823 5.25994 53.2094 5.77983C53.7365 6.29972 54 6.97088 54 7.79332Z" fill="#AFAFAF"/>
</g>
<path d="M43 6L1 14" stroke="#313131"/>
<defs>
<clipPath id="clip0_10077_802">
<rect width="8" height="9" fill="white" transform="translate(46 5)"/>
</clipPath>
</defs>
</svg>
