<svg width="37" height="22" viewBox="0 0 37 22" fill="none" xmlns="http://www.w3.org/2000/svg">
<path d="M6.5 10.87H8.8V11.83H6.5V10.87ZM10.8761 8.26C11.2294 8.26 11.5294 8.22333 11.7761 8.15C12.0228 8.07 12.2228 7.93667 12.3761 7.75C12.5361 7.55667 12.6494 7.29667 12.7161 6.97H13.4361V14H12.5361V9H10.8761V8.26ZM16.4516 10.61C16.4516 9.37667 16.6582 8.44 17.0716 7.8C17.4849 7.16 18.0882 6.84 18.8816 6.84C19.6416 6.84 20.2216 7.14 20.6216 7.74C21.0216 8.34 21.2216 9.20667 21.2216 10.34C21.2216 11.56 21.0149 12.4967 20.6016 13.15C20.1882 13.8033 19.5949 14.13 18.8216 14.13C18.4416 14.13 18.1082 14.0533 17.8216 13.9C17.5282 13.76 17.2782 13.54 17.0716 13.24C16.8649 12.94 16.7082 12.57 16.6016 12.13C16.5549 11.89 16.5182 11.65 16.4916 11.41C16.4649 11.17 16.4516 10.9033 16.4516 10.61ZM17.4116 10.56C17.4116 12.34 17.8816 13.23 18.8216 13.23C19.2816 13.23 19.6349 12.9933 19.8816 12.52C20.1349 12.0467 20.2616 11.3367 20.2616 10.39C20.2616 8.62333 19.7949 7.74 18.8616 7.74C17.8949 7.74 17.4116 8.68 17.4116 10.56ZM23.087 8.85C23.087 7.55 23.5304 6.9 24.417 6.9C24.837 6.9 25.157 7.05 25.377 7.35C25.597 7.65 25.707 8.1 25.707 8.7C25.707 9.32 25.587 9.8 25.347 10.14C25.1137 10.48 24.7904 10.65 24.377 10.65C23.957 10.65 23.637 10.5 23.417 10.2C23.197 9.89333 23.087 9.44333 23.087 8.85ZM23.697 8.83C23.697 9.71 23.9237 10.15 24.377 10.15C24.857 10.15 25.097 9.67333 25.097 8.72C25.097 7.83333 24.8637 7.39 24.397 7.39C23.9304 7.39 23.697 7.87 23.697 8.83ZM28.187 6.97H28.757L24.927 14H24.377L28.187 6.97ZM27.437 12.25C27.437 11.63 27.547 11.1567 27.767 10.83C27.9937 10.5033 28.3237 10.34 28.757 10.34C29.1837 10.34 29.5037 10.4933 29.717 10.8C29.937 11.1 30.047 11.54 30.047 12.12C30.047 12.7467 29.9304 13.23 29.697 13.57C29.4704 13.9033 29.1437 14.07 28.717 14.07C27.8637 14.07 27.437 13.4633 27.437 12.25ZM28.037 12.23C28.037 13.1433 28.2637 13.6 28.717 13.6C29.197 13.6 29.437 13.12 29.437 12.16C29.437 11.2667 29.2037 10.82 28.737 10.82C28.2704 10.82 28.037 11.29 28.037 12.23Z" fill="#313131"/>
<rect x="0.5" y="0.5" width="36" height="20" stroke="#AFAFAF"/>
</svg>
