<svg width="296.015625" height="157.571289" viewBox="0 0 296.016 157.571" fill="none" xmlns="http://www.w3.org/2000/svg" xmlns:xlink="http://www.w3.org/1999/xlink">
	<desc>
			Created with Pixso.
	</desc>
	<defs>
		<linearGradient x1="86.593796" y1="86.751427" x2="199.505630" y2="35.052635" id="paint_linear_774_2128_0" gradientUnits="userSpaceOnUse">
			<stop stop-color="#B29167"/>
			<stop offset="0.075676" stop-color="#B6976F"/>
			<stop offset="0.193300" stop-color="#C1A785"/>
			<stop offset="0.338200" stop-color="#D3C1A9"/>
			<stop offset="0.503200" stop-color="#ECE4DA"/>
			<stop offset="0.612400" stop-color="#FFFFFF"/>
			<stop offset="0.670300" stop-color="#F2ECE4"/>
			<stop offset="0.827600" stop-color="#CFBBA1"/>
			<stop offset="0.941700" stop-color="#BA9D77"/>
			<stop offset="1.000000" stop-color="#B29167"/>
		</linearGradient>
	</defs>
	<path id="Vector" d="" fill="#EEC215" fill-opacity="1.000000" fill-rule="nonzero"/>
	<path id="Vector" d="" fill="#EEC215" fill-opacity="1.000000" fill-rule="nonzero"/>
	<path id="Vector" d="M205.69 33.31C209.21 41.64 210.46 49.46 210.46 58.8C210.46 99.69 174.81 121.9 149.2 121.9C116.31 121.9 94.72 96.66 94.72 70.92C94.72 45.17 115.56 23.97 141.42 23.97C142.93 23.97 144.68 23.97 146.44 23.97C123.09 23.97 104.26 44.16 104.26 68.9C104.26 99.19 126.36 117.61 149.45 118.12C149.71 118.12 150.21 118.12 150.46 118.12C174.31 118.12 201.42 95.91 201.42 60.32C201.42 24.73 174.06 0 141.92 0C106.52 0 77.65 29.02 77.65 64.61C77.65 79.5 81.92 94.64 90.46 104.99C83.43 94.9 80.66 80.26 80.66 70.92C80.66 37.35 108.03 10.09 141.92 10.09C175.82 10.09 197.66 32.55 197.66 59.81C197.66 79 182.59 108.27 148.7 108.27C147.7 108.27 146.69 108.27 145.44 108.27C141.42 108.02 137.15 107.01 132.88 105.5C122.34 101.21 112.55 92.62 109.29 80.76C115.31 96.66 132.13 105.75 146.19 106C173.56 106 188.62 83.03 188.62 63.35C188.62 32.05 165.77 14.38 141.17 14.38C112.8 14.38 89.95 39.62 89.95 70.92C89.95 101.21 114.31 130.74 149.45 130.74C184.6 130.74 213.22 102.22 213.22 64.86C213.47 53 210.46 42.65 205.69 33.31Z" fill="#714615" fill-opacity="1.000000" fill-rule="nonzero"/>
	<path id="Vector" d="M135.14 105.75C139.41 107.52 143.68 108.27 147.7 108.53C148.7 108.53 149.71 108.53 150.96 108.53C177.32 108.53 192.14 90.86 197.41 73.95C194.9 73.44 192.14 73.19 189.62 72.94C185.61 89.85 171.3 106 148.45 106C134.39 105.75 117.32 96.66 111.54 80.76C115.06 93.13 124.6 101.71 135.14 105.75ZM289.55 102.22C265.44 90.86 240.09 82.53 214.48 77.23C213.47 82.28 212.22 87.07 210.46 91.61C208.96 90.35 207.45 89.09 206.19 87.58C207.95 84.04 209.46 80.51 210.46 76.47C207.7 75.97 204.94 75.46 202.18 74.96C196.15 102.22 173.31 118.62 152.72 118.62C152.47 118.62 151.97 118.62 151.71 118.62C129.62 118.37 108.28 101.21 106.52 72.94C103.26 73.44 100.25 73.69 96.98 74.2C97.74 85.05 102 95.65 109.54 103.98C108.53 106.25 107.78 108.27 106.77 110.54C98.49 100.45 93.22 87.83 92.21 74.96C90.2 75.21 77.65 77.73 76.14 77.99C52.29 83.29 28.95 91.36 6.35 101.96C1.08 104.49 -1.43 110.04 0.83 114.33C7.35 127.2 13.88 140.08 20.41 152.7C22.67 156.99 27.94 158.75 32.21 156.73C66.6 140.58 103.26 132 140.17 130.74C147.45 130.48 154.73 130.74 162.26 130.99C197.16 132.75 231.8 141.34 263.94 156.73C268.21 158.75 273.48 156.99 275.74 152.7C282.26 139.82 288.79 126.95 295.32 114.33C297.33 110.29 294.82 104.74 289.55 102.22ZM205.69 88.08C205.69 88.33 205.44 88.59 205.19 88.84C205.44 88.33 205.69 88.08 205.94 87.58C205.94 87.83 205.69 88.08 205.69 88.08Z" fill="#714615" fill-opacity="1.000000" fill-rule="nonzero"/>
	<path id="Vector" d="M143.93 0.5C108.28 0.5 79.66 29.52 79.66 65.11C79.66 69.15 79.91 73.19 80.66 77.23C81.42 76.98 82.17 76.98 82.92 76.72C82.67 74.7 82.67 72.94 82.67 71.42C82.67 37.6 110.29 10.34 144.18 10.34C178.08 10.34 199.92 32.81 199.92 60.06C199.92 64.36 199.16 68.9 197.66 73.69C192.14 90.6 177.07 108.53 150.71 108.53C149.71 108.53 148.7 108.53 147.45 108.53C143.43 108.27 139.16 107.26 134.89 105.75C124.35 101.46 114.81 92.88 111.29 80.76C117.32 96.66 134.39 106.25 148.2 106.51C171.05 106.51 185.61 90.1 189.62 72.94C189.62 72.94 189.62 72.94 189.37 72.94C190.13 69.91 190.38 66.63 190.38 63.6C190.38 32.3 167.53 14.63 142.93 14.63C114.56 14.63 91.71 39.87 91.71 71.17C91.71 72.68 91.71 73.95 91.96 75.46C92.97 88.08 97.99 100.7 106.27 111.05C107.28 108.78 108.03 106.76 109.03 104.49C109.03 104.23 108.78 104.23 108.78 103.98C101.5 95.65 97.23 85.05 96.48 74.45C96.48 73.44 96.48 72.43 96.48 71.42C96.48 45.43 117.32 24.48 143.18 24.48C144.68 24.48 146.44 24.48 148.2 24.48C124.85 24.48 106.02 44.67 106.02 69.4C106.02 70.67 106.02 71.68 106.02 72.94C107.78 101.21 129.12 118.37 151.21 118.62C151.46 118.62 151.97 118.62 152.22 118.62C172.8 118.62 195.4 102.22 201.68 74.7C202.68 70.41 203.18 65.62 203.18 60.57C203.68 24.98 176.07 0.5 143.93 0.5ZM207.7 33.82C211.22 42.14 212.47 49.97 212.47 59.31C212.47 65.37 211.72 71.17 210.21 76.47C209.21 80.51 207.7 84.04 205.94 87.58C207.2 89.09 208.7 90.35 210.21 91.61C211.97 87.07 213.47 82.28 214.23 77.23C214.98 73.19 215.23 69.15 215.23 64.86C215.48 53.5 212.47 42.9 207.7 33.82Z" fill="url(#paint_linear_774_2128_0)" fill-opacity="1.000000" fill-rule="nonzero"/>
	<path id="Vector" d="M67.86 127.96C66.86 128.21 65.85 127.96 64.85 127.71C63.34 127.2 62.34 126.95 62.09 126.95C58.57 126.7 54.55 126.45 50.03 126.19C47.27 130.48 43.26 133.01 38.49 133.77C36.73 134.02 34.97 134.02 33.72 133.51C32.21 133.01 31.46 132 31.21 130.48C30.95 127.71 32.21 125.69 34.72 123.92C36.73 122.66 39.49 121.65 43 121.15C43.76 121.15 44.51 120.89 45.26 120.89C46.02 119.88 46.27 117.61 46.52 114.33C46.52 112.06 46.77 108.27 47.27 103.48C48.03 98.93 49.28 95.4 51.29 92.62C54.05 89.09 57.82 87.07 63.09 86.06C66.1 85.56 68.61 85.81 70.62 86.82C72.88 87.83 74.39 89.6 74.64 91.87C74.89 93.38 74.39 95.4 73.13 98.43C71.63 101.71 69.87 103.48 68.11 103.73C67.36 103.73 66.6 103.73 65.85 103.48C64.85 103.23 64.34 102.72 64.34 101.96C64.34 101.46 64.34 100.95 64.85 99.94C65.35 98.93 66.1 97.92 66.6 96.91C67.36 95.65 67.61 94.64 67.61 93.89C67.36 92.12 65.85 91.36 62.84 91.87C58.32 92.62 55.56 96.66 53.8 104.49C53.55 106.25 53.05 108.53 52.8 111.3C52.29 115.85 52.04 118.12 52.04 118.12C52.04 119.13 51.79 119.88 51.54 120.39C58.07 119.88 64.6 120.39 70.62 121.65L72.38 123.16C71.37 126.19 69.87 127.71 67.86 127.96ZM41.75 126.19C40.75 126.45 39.99 126.7 39.24 126.95C38.23 127.46 37.73 127.71 37.73 128.21C37.73 128.46 37.98 128.46 38.49 128.46C39.49 128.21 41 127.46 42.75 125.94C42.25 126.19 42 126.19 41.75 126.19Z" fill="#FFFFFF" fill-opacity="1.000000" fill-rule="nonzero"/>
	<path id="Vector" d="M63.09 85.31C57.57 86.06 53.55 88.33 50.79 92.12C48.78 94.9 47.27 98.68 46.52 103.23C46.02 108.02 45.77 111.81 45.77 114.08C45.52 117.36 45.26 118.87 44.76 119.88C44.26 119.88 42.75 120.14 42.75 120.14C39.24 120.64 36.23 121.65 34.22 123.16C31.46 124.93 30.2 126.95 30.2 129.73C30.2 129.98 30.2 130.23 30.2 130.48C30.45 132.25 31.46 133.51 33.21 134.27C34.72 134.77 36.23 134.77 38.23 134.52C43.26 133.77 47.27 131.24 50.03 126.95C54.3 127.2 58.32 127.46 61.83 127.71C62.09 127.71 62.59 127.96 64.6 128.47C65.85 128.97 67.11 128.97 68.11 128.72C70.37 128.47 72.13 126.45 73.38 123.16L73.63 122.66L71.37 120.64L71.12 120.64C65.35 119.38 59.07 119.13 52.8 119.38C52.8 118.62 53.05 117.86 53.05 117.86C53.05 117.61 53.05 116.6 53.8 111.3C54.05 108.53 54.3 106.25 54.8 104.49C56.31 97.17 59.07 93.13 63.09 92.62C65.1 92.37 65.85 92.62 66.35 92.88C66.6 93.13 66.86 93.38 66.86 93.89C66.86 94.39 66.6 95.15 66.1 96.16L64.34 99.19C63.84 99.94 63.59 100.7 63.59 101.21L63.59 101.46C63.59 102.47 64.34 103.23 65.6 103.48C66.6 103.73 67.61 103.98 68.36 103.73C70.62 103.48 72.38 101.46 74.14 97.92C75.39 94.9 75.89 92.62 75.89 91.11C75.64 88.59 74.14 86.57 71.37 85.56C68.86 85.05 66.1 84.8 63.09 85.31ZM33.97 132.5C32.71 132 32.21 131.24 31.96 130.23C31.71 127.96 32.71 125.94 35.22 124.43C37.23 123.16 39.74 122.16 43.26 121.65L46.02 121.4L46.27 121.15C47.02 119.88 47.52 117.61 47.77 114.33C47.77 112.06 48.03 108.27 48.53 103.48C49.03 99.19 50.54 95.65 52.54 93.13C55.06 89.85 58.82 87.83 63.84 87.07C66.6 86.57 68.86 86.82 71.12 87.58C73.13 88.59 74.39 89.85 74.64 91.87C74.89 93.13 74.39 95.15 73.13 97.92C71.88 100.95 70.37 102.47 68.61 102.72C68.11 102.72 67.36 102.72 66.6 102.47C66.35 102.47 65.6 101.96 65.6 101.71C65.6 101.46 65.6 101.21 66.1 100.45L67.86 97.42C68.61 96.16 68.86 95.15 68.86 94.14L68.86 93.89C68.86 92.88 68.36 92.12 67.86 91.61C66.86 90.86 65.35 90.61 63.34 91.11C58.57 91.87 55.31 96.41 53.8 104.24C53.55 106 53.05 108.27 52.8 111.05C52.29 116.1 52.04 117.36 52.04 117.86L51.54 121.15L52.54 121.15C59.07 120.64 65.35 121.15 71.12 122.16C71.37 122.41 71.63 122.66 72.13 123.16C71.12 125.44 69.87 126.95 68.36 127.2C67.61 127.2 66.6 127.2 65.6 126.95C64.09 126.45 63.09 126.19 62.59 126.19C59.07 125.94 54.8 125.69 50.29 125.44L49.78 125.44L49.53 125.94C46.77 129.98 43.26 132.25 38.49 133.01C36.48 133.01 34.97 133.01 33.97 132.5Z" fill="#714615" fill-opacity="1.000000" fill-rule="nonzero"/>
	<path id="Vector" d="M41.5 125.44C40.49 125.69 39.74 125.94 38.74 126.19C37.48 126.7 36.73 127.46 36.98 128.47C36.98 128.47 36.98 128.47 36.98 128.21C36.98 128.47 36.98 128.72 37.23 128.97C37.73 129.22 38.23 129.22 38.49 129.22C39.74 128.97 41.25 128.21 43 126.7L45.26 124.93L41.5 125.44Z" fill="#714615" fill-opacity="1.000000" fill-rule="nonzero"/>
	<path id="Vector" d="M95.98 123.92C94.47 123.92 92.97 123.42 91.21 122.41C90.46 122.91 89.7 123.16 88.95 123.67C87.19 124.43 85.43 124.93 83.43 124.93C81.17 125.18 79.16 124.68 77.4 123.42C75.64 122.16 74.64 120.39 74.39 118.12C74.39 117.36 74.39 116.6 74.64 115.85C75.39 112.56 76.9 109.54 79.66 106.76C82.67 103.73 85.94 101.96 89.7 101.71C90.71 101.71 91.71 101.71 92.97 101.96C93.72 102.22 94.47 102.47 94.72 102.97C95.48 101.96 96.48 101.46 97.49 101.46C99.24 101.21 100.25 102.22 100.5 103.98C100.5 105.75 100 108.02 98.49 111.3C97.49 113.32 96.98 114.84 96.73 115.85C96.73 116.6 96.73 117.11 96.98 117.61C97.23 118.12 97.49 118.12 97.74 118.12C97.74 118.12 98.24 118.12 98.74 117.86C99.24 117.61 99.74 117.61 100 117.61C101.5 117.61 102.26 118.12 102.26 119.13C102.26 120.64 101.75 121.65 100 122.41C98.99 123.42 97.74 123.92 95.98 123.92ZM92.21 107.52C91.71 107.52 90.96 107.52 90.46 107.26C89.95 107.01 89.45 107.01 89.45 107.01C87.94 107.01 86.44 108.02 84.93 109.54C83.68 111.05 82.67 112.82 82.42 114.84C82.17 115.59 82.17 116.1 82.17 116.6C82.42 118.62 83.43 119.63 85.43 119.63C86.19 119.63 87.19 119.38 87.94 118.62C88.95 118.12 89.45 117.36 89.45 116.6C89.45 116.1 89.7 115.09 89.95 113.83C90.46 111.81 91.21 109.79 92.21 107.52Z" fill="#FFFFFF" fill-opacity="1.000000" fill-rule="nonzero"/>
	<path id="Vector" d="M97.49 100.95C96.48 100.95 95.48 101.46 94.72 102.22C94.22 101.96 93.72 101.71 93.22 101.46C91.96 101.21 90.96 100.95 89.7 100.95C85.94 101.21 82.42 102.97 79.16 106.25C76.4 109.03 74.64 112.31 74.14 115.85C73.89 116.6 73.89 117.61 73.89 118.37C74.14 120.89 75.14 122.91 77.15 124.17C78.91 125.44 81.17 125.94 83.68 125.69C85.69 125.44 87.44 125.18 89.45 124.43C89.45 124.43 90.96 123.42 91.21 123.42C92.97 124.43 94.47 124.93 95.98 124.93C97.74 124.93 99.24 124.43 100.5 123.92C102.76 122.66 103.26 120.89 103.01 119.88C103.01 119.13 102.76 118.62 102.26 118.12C101.75 117.61 101 117.36 100 117.61C99.49 117.61 98.99 117.86 98.49 117.86C98.49 117.86 97.99 118.12 97.74 118.12C97.49 117.86 97.49 117.61 97.49 117.11L97.49 116.85C97.74 116.1 98.24 114.58 99.24 112.56C100.75 109.54 101.5 107.01 101.5 105.24C101.5 104.99 101.5 104.99 101.5 104.74C101.5 103.48 101 102.72 100.5 102.22C99.75 101.21 98.74 100.95 97.49 100.95ZM95.48 103.98C96.23 103.23 96.98 102.72 97.74 102.72C98.49 102.72 98.99 102.72 99.24 102.97C99.49 103.23 99.75 103.73 99.75 104.49C99.75 106 99.24 108.27 97.74 111.3C96.73 113.32 96.23 114.84 95.98 115.85C95.73 116.6 95.98 117.61 96.48 118.37C96.98 119.13 97.49 119.38 97.99 119.38L99.24 119.13C99.75 118.87 100 118.87 100.25 118.87C100.75 118.87 101.25 118.87 101.25 119.13C101.25 119.13 101.5 119.38 101.5 119.63L101.5 119.88C101.5 120.64 101.25 121.4 99.75 122.16C98.74 122.66 97.49 122.91 95.98 123.16C94.72 123.16 93.47 122.66 91.71 121.65L91.21 121.4C91.21 121.4 88.7 122.91 88.45 122.91C86.94 123.67 85.18 123.92 83.43 124.17C81.42 124.43 79.66 123.92 77.9 122.91C76.15 121.9 75.39 120.39 75.39 118.37C75.39 117.86 75.39 117.11 75.64 116.35C76.15 113.07 77.9 110.29 80.41 107.52C83.17 104.49 86.44 102.97 89.7 102.72C90.71 102.72 91.71 102.72 92.46 102.97C93.22 103.23 93.72 103.48 93.97 103.73L94.47 104.49L95.48 103.98Z" fill="#714615" fill-opacity="1.000000" fill-rule="nonzero"/>
	<path id="Vector" d="M89.45 106C87.69 106.25 85.94 107.01 84.43 108.78C82.92 110.54 81.92 112.31 81.67 114.33C81.42 115.09 81.42 115.85 81.42 116.35C81.67 118.87 83.17 120.39 85.69 120.14C86.69 120.14 87.69 119.63 88.45 119.13C89.7 118.37 90.2 117.61 90.46 116.6L90.96 113.83C91.21 112.06 91.96 110.04 92.97 107.77L93.47 106.51L91.96 106.51C91.71 106.51 91.21 106.51 90.71 106.25C89.7 106 89.7 106 89.45 106ZM83.17 116.35L83.17 116.1C83.17 115.59 83.17 115.34 83.43 114.84C83.68 113.07 84.68 111.3 85.94 110.04C87.19 108.78 88.45 108.02 89.7 107.77C89.95 107.77 90.46 108.02 90.46 108.02C90.71 108.02 90.96 108.02 91.21 108.27C90.46 110.29 89.7 112.06 89.45 113.83L88.95 116.6C88.95 117.11 88.45 117.61 87.69 118.12C86.94 118.62 86.19 118.87 85.69 118.87C83.93 118.62 83.17 118.12 83.17 116.35Z" fill="#714615" fill-opacity="1.000000" fill-rule="nonzero"/>
	<path id="Vector" d="M127.61 122.15C126.36 122.66 125.1 122.91 123.85 122.91C122.09 122.91 120.58 122.41 119.58 121.65C118.57 120.64 118.07 119.38 118.07 117.61C118.07 116.85 118.07 116.1 118.32 115.34C118.32 114.84 118.83 113.83 119.33 112.31C120.33 109.79 120.83 108.02 120.83 107.01C120.83 106.25 120.58 105.75 119.83 105.75C117.82 105.75 115.56 108.02 113.05 112.31C112.55 113.07 111.54 115.59 109.79 119.63C109.54 120.39 108.78 121.15 108.03 121.9C107.03 122.66 106.02 123.16 105.02 123.16C103.51 123.16 102.51 122.66 102.76 121.15C102.76 120.89 103.01 120.39 103.01 119.38C104.01 115.59 104.52 112.56 105.02 110.29C105.27 109.79 105.27 109.28 105.27 108.78L106.77 102.97C107.03 101.96 108.03 100.95 109.54 100.45C110.29 100.2 111.54 99.69 113.55 98.93C114.06 100.2 114.31 101.21 114.06 102.22C114.81 101.46 115.56 100.95 115.81 100.95C116.31 100.7 117.07 100.45 118.32 100.2C119.83 99.69 120.83 99.69 121.59 99.44C125.6 99.44 127.86 100.95 127.86 104.23C127.86 104.99 127.86 106 127.36 107.26C127.11 108.02 126.86 109.28 126.36 110.8C125.86 112.31 125.6 113.57 125.35 114.33C125.1 115.09 125.1 115.59 125.1 116.1C125.1 116.85 125.35 117.36 126.11 117.11C126.36 117.11 126.61 116.85 127.11 116.85C127.86 116.6 128.11 116.6 128.62 116.6C130.12 116.6 130.88 117.11 130.88 118.37C130.88 120.14 129.87 121.4 127.61 122.15Z" fill="#FFFFFF" fill-opacity="1.000000" fill-rule="nonzero"/>
	<path id="Vector" d="M109.54 99.94C107.78 100.7 106.52 101.71 106.27 102.97L104.77 108.78L104.52 110.29L102.51 119.38L102.26 121.15C102.26 122.15 102.51 122.66 103.01 123.16C103.51 123.67 104.52 123.92 105.52 123.92C106.77 123.92 107.78 123.42 109.03 122.41C109.79 121.65 110.54 120.89 110.79 119.88C112.55 115.85 113.55 113.57 114.06 112.82C116.82 107.77 118.83 106.51 120.08 106.51C120.08 106.51 120.08 106.51 120.08 106.76C120.08 107.52 119.83 108.78 118.57 111.55C117.82 113.32 117.57 114.33 117.32 114.84C117.32 115.59 117.07 116.35 117.07 117.11L117.07 117.36C117.07 119.38 117.82 120.89 119.08 121.9C120.33 122.91 121.84 123.42 123.85 123.42C125.1 123.42 126.61 123.16 127.86 122.41C130.37 121.4 131.63 119.88 131.63 118.12C131.63 117.36 131.38 116.85 130.88 116.35C130.63 116.35 129.62 116.1 128.62 116.1C128.12 116.1 127.61 116.35 126.86 116.35C126.86 116.35 126.36 116.6 126.11 116.6C126.11 116.6 126.11 116.6 126.11 116.35C126.11 116.1 126.11 115.59 126.36 114.84L127.36 111.3L128.37 107.52C128.62 106.51 128.87 105.5 128.87 104.74L128.87 104.49C128.87 101.71 127.61 98.68 121.84 98.68C121.09 98.68 119.83 98.93 118.32 99.44C117.07 99.69 116.32 100.2 115.81 100.45C115.56 100.45 115.31 100.7 115.06 100.95C115.06 100.2 114.81 99.69 114.56 98.93L114.31 98.43L109.54 99.94ZM108.03 103.48C108.28 102.72 109.03 101.96 110.29 101.46C110.29 101.46 112.3 100.7 113.55 100.2C113.8 100.7 113.8 101.21 113.8 101.71C113.8 101.96 113.8 102.22 113.8 102.22L113.3 104.74L115.06 103.22C116.06 102.47 116.57 102.22 116.82 101.96C117.07 101.71 117.82 101.46 119.08 101.21C120.33 100.7 121.34 100.7 122.09 100.7C126.86 100.7 127.36 102.97 127.36 104.74C127.36 105.5 127.36 106.51 127.11 107.52L126.11 111.05L125.1 114.58C124.85 115.34 124.85 116.1 124.85 116.6C124.85 117.36 125.1 117.86 125.35 118.12C125.6 118.37 125.86 118.62 126.61 118.62L127.61 118.37C128.37 118.12 128.62 118.12 128.87 118.12C129.37 118.12 129.87 118.12 130.12 118.37C130.12 118.37 130.37 118.62 130.37 118.87C130.37 119.38 130.12 120.39 127.61 121.4C126.36 121.9 125.1 122.15 124.1 122.15C122.59 122.15 121.34 121.9 120.33 121.15C119.58 120.39 119.08 119.13 119.08 117.61C119.08 116.85 119.08 116.1 119.33 115.34C119.33 115.09 119.58 114.33 120.33 112.56C121.34 110.04 121.84 108.02 121.84 107.01C121.84 105.5 120.83 104.99 120.08 104.99C117.57 104.99 115.31 107.26 112.55 112.06C112.05 112.82 111.04 115.34 109.29 119.38C109.03 120.14 108.53 120.64 107.78 121.4C107.03 122.15 106.27 122.41 105.52 122.66C105.02 122.66 104.52 122.66 104.26 122.41C104.01 122.15 104.01 121.9 104.01 121.65L104.26 120.14L106.27 111.05L106.77 109.54C106.52 109.28 108.03 103.48 108.03 103.48Z" fill="#714615" fill-opacity="1.000000" fill-rule="nonzero"/>
	<path id="Vector" d="M153.22 122.91C151.71 122.91 150.21 122.15 148.7 120.89C147.95 121.14 147.2 121.65 146.44 122.15C144.68 122.66 142.93 122.91 140.92 122.91C138.66 122.91 136.65 122.15 135.14 120.89C133.39 119.38 132.63 117.61 132.63 115.34C132.63 114.58 132.63 113.83 132.89 113.07C133.89 109.79 135.65 106.76 138.66 104.49C141.92 101.71 145.19 100.2 148.95 100.45C149.96 100.45 150.96 100.7 151.97 100.95C152.72 101.21 153.47 101.71 153.72 102.22C154.73 101.46 155.73 100.95 156.74 100.95C158.49 100.95 159.5 101.96 159.5 103.73C159.5 105.5 158.49 107.77 156.74 110.8C155.48 112.82 154.98 114.08 154.73 115.09C154.48 115.84 154.73 116.35 154.98 116.85C155.23 117.36 155.48 117.36 155.73 117.36C155.73 117.36 156.23 117.36 156.74 117.11C157.24 116.85 157.74 116.85 157.99 116.85C159.5 116.85 160 117.36 160 118.62C160 120.14 159.25 121.14 157.49 121.65C156.23 122.91 154.73 122.91 153.22 122.91ZM150.71 106.25C149.96 106.25 149.46 106 148.95 105.75C148.45 105.5 148.2 105.24 147.95 105.24C146.44 105.24 144.68 106 143.18 107.26C141.67 108.78 140.67 110.29 140.17 112.31C139.91 113.07 139.91 113.57 139.91 114.08C139.91 116.1 140.92 117.36 142.93 117.36C143.68 117.36 144.68 117.11 145.44 116.6C146.44 116.1 146.94 115.34 147.2 114.84C147.45 114.33 147.45 113.32 147.95 112.06C148.7 110.54 149.46 108.53 150.71 106.25Z" fill="#FFFFFF" fill-opacity="1.000000" fill-rule="nonzero"/>
	<path id="Vector" d="M137.91 103.98C134.89 106.51 132.88 109.54 131.88 113.07C131.63 113.83 131.63 114.84 131.63 115.59C131.63 118.12 132.63 120.14 134.39 121.65C136.15 123.16 138.16 123.67 140.67 123.92C142.68 123.92 144.68 123.67 146.44 122.91C146.44 122.91 147.95 122.16 148.45 121.9C149.96 123.16 151.46 123.67 152.97 123.67C154.73 123.67 156.23 123.42 157.49 122.91C160 121.9 160.5 120.14 160.5 118.87C160.5 118.12 160.25 116.35 157.49 116.35C156.99 116.35 156.48 116.35 155.98 116.6C155.98 116.6 155.48 116.6 155.23 116.85C155.23 116.6 154.98 116.35 154.98 116.1C154.98 115.85 154.98 115.85 154.98 115.59C155.23 114.84 155.98 113.32 156.99 111.55C158.74 108.27 159.75 106 159.75 103.98C159.75 102.97 159.5 101.96 158.74 101.46C158.24 100.7 157.24 100.45 155.98 100.45C154.98 100.45 153.97 100.95 153.22 101.46C152.72 101.21 152.22 100.7 151.71 100.45C150.71 99.94 149.45 99.69 148.2 99.69C144.94 99.69 141.17 101.21 137.91 103.98ZM140.67 122.16C138.66 122.16 136.9 121.65 135.39 120.39C133.89 119.13 133.14 117.61 133.14 115.59C133.14 115.09 133.14 114.33 133.39 113.57C134.14 110.54 136.15 107.77 138.91 105.24C141.92 102.47 145.19 101.21 148.7 101.21C149.71 101.21 150.71 101.46 151.46 101.71C152.22 101.96 152.72 102.47 152.72 102.72L153.22 103.48L153.97 102.97C154.73 102.22 155.48 101.96 156.48 101.96C157.24 101.96 157.74 102.22 157.99 102.47C158.24 102.72 158.49 103.23 158.49 103.98C158.49 105.5 157.49 107.77 155.98 110.54C154.73 112.56 153.97 114.08 153.72 115.09C153.47 115.85 153.72 116.85 153.97 117.61C154.48 118.37 154.98 118.62 155.48 118.62L156.74 118.37C157.24 118.37 157.49 118.12 157.74 118.12C159 118.12 159 118.62 159 119.13C159 119.88 158.74 120.89 156.99 121.4C155.98 121.9 154.73 121.9 153.22 121.9C151.97 121.9 150.71 121.4 149.2 120.14L148.7 119.88L145.94 121.15C144.18 121.9 142.42 122.16 140.67 122.16Z" fill="#714615" fill-opacity="1.000000" fill-rule="nonzero"/>
	<path id="Vector" d="M142.93 107.01C141.42 108.53 140.17 110.29 139.66 112.31C139.41 113.07 139.41 113.57 139.41 114.33C139.41 115.59 139.66 116.6 140.42 117.36C141.17 118.12 142.17 118.37 143.43 118.37C144.43 118.37 145.44 118.12 146.44 117.61C147.7 117.11 148.45 116.1 148.7 115.34L149.45 112.56C149.96 110.8 150.71 108.78 151.97 106.76L152.72 105.5L151.21 105.5C150.96 105.5 150.46 105.5 149.96 105.24C148.95 104.74 148.95 104.74 148.7 104.74C146.19 104.74 144.43 105.5 142.93 107.01ZM143.18 116.85C142.42 116.85 141.67 116.6 141.42 116.35C141.17 116.1 140.92 115.34 140.92 114.58C140.92 114.08 140.92 113.57 141.17 113.07C141.67 111.3 142.68 109.79 143.93 108.53C145.19 107.26 146.44 106.76 147.95 106.76C148.2 106.76 148.7 107.01 148.7 107.01C148.95 107.01 149.2 107.26 149.45 107.26C148.45 109.03 147.7 110.8 147.2 112.56L146.44 115.34C146.44 115.85 145.94 116.35 145.19 116.6C144.43 116.6 143.68 116.85 143.18 116.85Z" fill="#714615" fill-opacity="1.000000" fill-rule="nonzero"/>
	<path id="Vector" d="M199.42 127.46C198.41 127.46 197.41 126.95 196.4 126.45C195.15 125.69 194.14 125.18 193.89 125.18C190.38 124.17 186.61 122.91 182.09 121.65C178.33 125.18 174.06 126.7 169.04 126.45C167.03 126.45 165.52 125.94 164.52 125.18C163.26 124.43 162.51 123.16 162.76 121.65C163.01 118.87 164.77 117.11 167.78 116.1C170.04 115.34 173.05 114.84 176.57 115.09C177.32 115.09 178.08 115.34 179.08 115.34C179.83 114.33 180.84 112.56 181.59 109.28C182.09 107.01 183.35 103.48 184.85 98.93C186.36 94.64 188.62 91.36 191.13 89.34C194.39 86.57 198.91 85.31 204.19 85.56C207.2 85.81 209.46 86.57 211.47 87.83C213.47 89.34 214.48 91.36 214.23 93.63C213.98 95.15 212.97 97.17 211.22 99.69C208.96 102.72 206.95 103.98 205.19 103.98C204.44 103.98 203.68 103.73 202.93 103.23C202.18 102.72 201.68 102.22 201.68 101.46C201.68 100.95 201.93 100.45 202.68 99.69C203.43 98.93 204.19 97.92 204.94 97.17C205.94 96.16 206.45 95.15 206.45 94.39C206.7 92.62 205.19 91.61 202.18 91.36C197.66 91.11 193.89 94.39 190.63 101.71C189.88 103.48 189.12 105.5 188.12 108.02C186.61 112.31 185.86 114.33 185.86 114.58C185.61 115.59 185.36 116.1 184.85 116.85C191.38 117.86 197.41 119.63 203.18 122.16L204.44 123.92C203.18 126.19 201.42 127.46 199.42 127.46ZM174.31 119.88C173.31 119.88 172.55 119.88 171.55 120.14C170.54 120.39 170.04 120.64 169.79 121.15C169.79 121.4 170.04 121.4 170.29 121.4C171.3 121.4 172.8 120.89 175.06 119.88C174.81 119.88 174.56 119.88 174.31 119.88Z" fill="#FFFFFF" fill-opacity="1.000000" fill-rule="nonzero"/>
	<path id="Vector" d="M190.38 88.59C187.62 90.86 185.61 94.14 183.85 98.43C182.34 103.22 181.34 106.51 180.59 109.03C179.58 112.31 178.83 113.57 178.33 114.33C177.82 114.33 176.32 114.08 176.32 114.08C172.8 113.83 169.79 114.08 167.28 115.09C164.02 116.35 162.01 118.37 161.76 121.4C161.5 123.16 162.26 124.68 164.02 125.69C165.27 126.45 167.03 126.95 169.04 127.2C174.06 127.46 178.58 125.94 182.34 122.41C186.36 123.42 190.38 124.68 193.64 125.69C193.89 125.69 194.39 125.94 196.15 126.95C197.16 127.71 198.41 127.96 199.42 127.96C201.68 128.21 203.68 126.7 205.69 123.67L205.94 123.16L204.19 120.64L203.93 120.64C198.41 118.37 192.64 116.6 186.36 115.59C186.61 114.84 186.86 114.33 186.86 114.33C186.86 114.33 187.11 113.32 189.12 108.02C189.88 105.5 190.88 103.22 191.38 101.71C194.39 94.9 197.91 91.61 201.93 91.87C203.93 91.87 204.69 92.37 204.94 92.88C204.94 93.13 205.19 93.38 205.19 93.63L205.19 93.89C205.19 94.39 204.94 94.9 203.93 96.16L201.68 98.68C200.92 99.44 200.67 100.2 200.42 100.95C200.42 101.71 200.67 102.47 201.93 103.48C202.68 103.98 203.68 104.23 204.44 104.49C206.7 104.74 208.96 103.22 211.22 99.94C213.22 97.42 214.23 95.15 214.23 93.63C214.48 91.11 213.47 88.84 211.22 87.07C209.21 85.56 206.45 84.8 203.43 84.55C198.66 84.29 193.89 85.56 190.38 88.59ZM179.58 115.85C180.59 114.84 181.59 112.82 182.34 109.54C182.85 107.26 184.1 103.73 185.36 99.19C186.86 95.15 188.87 91.87 191.38 89.85C194.65 87.07 198.66 86.06 203.68 86.31C206.45 86.57 208.7 87.32 210.46 88.59C212.22 89.85 213.22 91.61 212.97 93.63C212.72 94.9 211.97 96.91 210.21 99.19C208.2 101.71 206.45 103.22 204.94 102.97C204.44 102.97 203.68 102.72 203.18 102.22C202.93 101.96 202.43 101.71 202.43 101.21C202.43 100.95 202.43 100.7 203.18 99.94L205.44 97.42C206.45 96.16 206.95 95.15 207.2 94.14C207.2 93.89 207.2 93.89 207.2 93.63C207.2 92.88 206.95 92.37 206.45 91.61C205.69 90.6 204.19 90.1 202.18 90.1C197.41 89.85 193.39 93.38 190.13 100.95C189.37 102.72 188.62 104.74 187.62 107.52C186.11 112.31 185.61 113.57 185.36 114.08L184.1 117.11L185.1 117.36C191.38 118.37 197.41 120.14 203.18 122.41C203.43 122.66 203.68 123.16 203.93 123.67C202.43 125.69 200.92 126.95 199.42 126.7C198.66 126.7 197.66 126.45 196.9 125.94C195.4 125.18 194.65 124.68 194.14 124.43C190.63 123.16 186.61 122.16 182.34 120.89L181.84 120.89L181.59 121.15C178.08 124.43 174.06 125.94 169.29 125.69C167.53 125.69 166.28 125.18 165.27 124.43C164.27 123.67 163.77 122.91 163.77 121.65C164.02 119.38 165.52 117.61 168.03 116.85C170.29 116.1 173.05 115.85 176.32 115.85L179.08 116.1L179.58 115.85Z" fill="#714615" fill-opacity="1.000000" fill-rule="nonzero"/>
	<path id="Vector" d="M171.3 119.38C169.79 119.63 169.04 120.39 169.04 121.15C169.04 121.4 169.04 121.65 169.29 121.65C169.54 122.16 170.04 122.16 170.54 122.16C171.8 122.16 173.31 121.65 175.56 120.64L178.08 119.38L174.31 118.87C173.31 119.13 172.3 119.13 171.3 119.38Z" fill="#714615" fill-opacity="1.000000" fill-rule="nonzero"/>
	<path id="Vector" d="M234.56 124.43L234.31 125.69C234.31 125.94 234.06 126.19 234.06 126.45C233.81 126.95 233.81 127.46 233.56 128.21L233.31 127.71C233.06 127.96 232.81 128.21 232.56 128.47C231.3 128.72 229.79 128.72 228.29 128.72C227.03 128.47 226.03 128.21 225.28 127.96C224.27 127.46 223.52 126.95 223.02 125.94C223.02 125.69 222.77 125.44 222.77 125.18C220.25 126.95 217.24 127.71 213.98 127.2C210.21 126.7 208.45 124.68 208.45 121.4C208.45 119.63 209.21 116.86 210.71 113.32C211.72 110.8 212.47 109.03 212.97 108.27C214.48 105.5 216.49 104.24 218.5 104.49C220.25 104.74 221.26 105.5 221.51 107.01L217.49 115.85C216.74 117.61 216.24 118.87 215.99 120.14C215.74 121.4 215.99 122.16 216.49 122.16C218.25 122.41 220 121.4 221.76 118.87C223.02 116.86 224.52 114.08 226.28 111.05C228.29 107.77 230.55 106.25 233.06 106.51C233.56 106.51 234.31 106.76 234.82 107.26C235.57 107.77 235.82 108.27 235.82 108.78C235.82 109.03 235.82 109.03 235.57 109.28C233.06 114.08 231.55 116.86 231.3 117.61C230.3 119.88 229.79 121.4 229.79 121.9C229.54 122.91 229.79 123.67 230.55 123.67C230.8 123.67 231.05 123.67 231.55 123.67C232.05 123.67 232.31 123.67 232.56 123.67C232.81 123.42 233.56 123.92 234.56 124.43Z" fill="#FFFFFF" fill-opacity="1.000000" fill-rule="nonzero"/>
	<path id="Vector" d="M211.97 107.77C211.47 108.53 210.71 110.29 209.71 112.82C208.2 116.35 207.45 119.13 207.45 121.15C207.45 125.18 209.46 127.46 213.73 127.96C216.74 128.21 219.5 127.71 222.26 126.19C222.76 127.2 223.77 127.96 224.77 128.46C225.53 128.72 226.53 128.97 228.04 129.22C229.54 129.47 231.05 129.47 232.56 128.97L232.81 128.97L233.06 128.72C233.31 128.97 233.81 129.73 233.81 129.73L234.82 126.19L235.07 125.44L235.32 124.17L235.57 123.67L234.82 123.67C233.81 122.91 233.06 122.66 232.56 122.66L231.3 122.66L230.3 122.66C230.3 122.66 230.05 122.41 230.3 121.9C230.3 121.65 230.55 120.64 231.8 117.86C232.05 117.36 232.81 115.59 236.07 109.54L236.32 108.78C236.32 108.27 236.32 107.26 235.07 106.51C234.31 106 233.56 105.75 233.06 105.75C230.3 105.5 227.79 107.01 225.53 110.54L221.01 118.37C219.5 120.39 218.25 121.4 216.74 121.15C216.74 121.15 216.74 120.89 216.74 120.64C216.74 120.39 216.74 120.14 216.74 119.88C216.99 118.87 217.24 117.61 217.99 115.85L222.26 106.76L222.26 106.51C222.01 105.24 221.01 103.73 218.5 103.48C215.74 103.23 213.73 104.74 211.97 107.77ZM213.73 126.19C210.46 125.69 208.96 124.17 208.96 121.15C208.96 119.38 209.71 116.85 211.22 113.32C212.22 110.8 212.97 109.03 213.48 108.53C214.98 106 216.49 104.99 217.99 105.24C219.25 105.5 220 106 220.25 106.76C220 107.26 216.24 115.09 216.24 115.09C215.48 116.85 214.98 118.37 214.73 119.63C214.73 119.88 214.73 120.14 214.73 120.39C214.73 121.15 214.98 121.65 215.23 121.9L216.24 122.41C218.25 122.66 220.25 121.4 222.26 118.87L226.78 111.05C228.54 108.02 230.55 106.76 232.56 107.01C233.06 107.01 233.56 107.26 234.06 107.52C234.31 107.77 234.56 108.02 234.56 108.27L234.56 108.53C231.8 113.57 230.55 116.35 230.3 116.85C229.04 119.88 228.79 120.89 228.79 121.15C228.79 121.4 228.79 121.65 228.79 121.9C228.79 122.41 228.79 122.91 229.04 123.16C229.29 123.42 229.54 123.67 230.3 123.92L232.31 123.92C232.56 123.92 232.81 124.17 233.56 124.43C233.56 124.68 233.31 124.93 233.31 124.93L233.06 125.44C233.06 125.44 233.06 125.69 232.81 125.94C232.56 126.19 231.8 126.7 231.55 126.95C230.3 127.2 229.04 127.2 227.79 127.2C226.28 126.95 225.28 126.7 225.02 126.7C224.27 126.45 223.52 125.69 223.27 124.93L222.76 123.67L221.76 124.17C219.5 125.94 216.74 126.7 213.73 126.19Z" fill="#714615" fill-opacity="1.000000" fill-rule="nonzero"/>
	<path id="Vector" d="M257.66 131.75C255.4 132.5 253.9 132.75 252.89 132.75C251.39 132.5 250.38 130.99 249.88 128.46C249.63 127.45 249.38 126.19 249.38 124.93C248.62 125.44 247.62 126.19 246.36 126.95C243.1 129.47 240.59 130.48 239.33 130.23C237.58 129.98 236.82 129.22 237.07 127.96C237.07 127.71 237.33 127.45 237.33 127.2C237.83 126.19 239.84 124.68 243.6 122.41C244.61 121.65 246.36 120.64 248.62 119.38C248.62 117.86 248.62 116.6 248.37 115.34C246.87 116.1 245.86 116.35 245.11 116.1C243.6 115.84 242.85 114.84 243.35 113.07C243.35 112.82 243.35 112.56 243.6 112.31C244.1 111.3 245.36 110.54 247.37 109.79C249.63 109.03 251.13 108.78 252.39 108.78C253.9 109.03 254.9 110.54 255.15 113.07C255.15 113.57 255.4 114.33 255.4 115.59C256.16 115.09 257.16 114.58 258.41 113.83C261.43 112.06 263.18 111.05 264.19 111.3C265.19 111.55 265.95 112.06 266.2 112.56C266.7 113.32 266.7 114.08 266.45 114.84C266.2 115.09 263.44 116.85 257.66 119.88C257.16 120.14 256.66 120.64 256.16 120.64C255.9 120.89 256.16 122.15 256.41 124.43C256.41 125.18 256.66 125.94 256.66 126.7C258.67 125.69 259.92 125.44 260.42 125.44C261.18 125.69 261.68 125.94 262.18 126.7C262.43 127.2 262.43 127.71 262.43 128.46C261.93 129.73 260.42 130.74 257.66 131.75Z" fill="#FFFFFF" fill-opacity="1.000000" fill-rule="nonzero"/>
	<path id="Vector" d="M246.87 108.78C244.61 109.79 243.1 110.8 242.6 111.81L242.35 112.56C242.1 113.57 242.35 114.58 242.85 115.34C243.35 116.1 244.1 116.35 244.86 116.6C245.61 116.6 246.36 116.6 247.37 116.1C247.37 117.11 247.37 118.12 247.62 118.62C246.87 119.13 243.1 121.4 243.1 121.4C238.08 124.43 237.08 125.69 236.57 126.45L236.32 127.46C236.32 127.71 236.32 127.71 236.32 127.96C236.32 128.97 236.82 130.23 239.33 130.74C241.09 130.99 243.35 129.98 247.12 127.46C247.12 127.46 248.12 126.7 248.87 126.19C249.13 127.2 249.38 128.46 249.38 128.46C249.88 131.49 251.13 133.01 253.14 133.51C254.4 133.77 255.9 133.51 258.41 132.5C261.43 131.49 262.93 130.23 263.18 128.46C263.18 128.21 263.18 127.96 263.18 127.71C263.18 127.2 263.18 126.7 262.68 126.19C262.18 125.44 261.43 124.68 260.42 124.68C259.92 124.68 259.17 124.68 257.16 125.44C257.16 124.93 256.91 124.17 256.91 124.17C256.66 122.41 256.66 121.65 256.66 121.15C257.16 120.89 257.91 120.39 257.91 120.39C266.7 115.85 266.95 115.34 266.95 114.84C267.2 114.33 267.2 114.08 267.2 113.57C267.2 113.07 266.95 112.56 266.7 111.81C266.2 110.8 265.19 110.29 263.94 110.04C263.18 109.79 261.68 110.04 257.66 112.56C257.66 112.56 256.66 113.07 255.9 113.57C255.9 113.07 255.9 112.31 255.9 112.31C255.65 109.54 254.4 107.77 252.39 107.52C251.13 107.77 249.38 108.02 246.87 108.78ZM245.36 115.09C244.86 115.09 244.61 114.84 244.36 114.58C244.1 114.33 244.1 113.83 244.1 113.07L244.36 112.56C244.61 112.31 245.11 111.3 247.87 110.54C249.88 109.79 251.39 109.54 252.39 109.79C252.89 109.79 254.15 110.04 254.65 113.32L254.9 115.85L254.9 117.11L255.9 116.35L258.92 114.58C262.68 112.31 263.94 112.06 264.19 112.31C264.94 112.56 265.44 112.82 265.7 113.32C265.95 113.57 265.95 113.83 265.95 114.08C265.95 114.33 265.95 114.33 265.95 114.58C265.7 114.84 264.19 115.85 257.41 119.38L255.65 120.39L255.4 120.64C255.4 120.89 255.15 121.15 255.15 121.65C255.15 122.16 255.15 123.16 255.4 124.93L255.9 128.21L256.91 127.71C259.42 126.45 259.92 126.45 260.17 126.45C260.93 126.7 261.18 126.95 261.18 127.2C261.43 127.46 261.43 127.96 261.43 128.46C261.43 128.97 260.67 129.98 257.66 130.99C255.15 132 253.9 132 253.39 132C252.89 132 251.64 131.75 250.88 128.46L250.13 123.67L249.13 124.43L245.86 126.19C241.85 129.22 240.09 129.47 239.33 129.22C237.58 128.97 237.83 128.21 237.83 127.96L238.08 127.71C238.33 127.46 239.08 126.19 244.1 123.16L249.38 119.88L249.38 119.38L249.13 115.09L248.87 114.08L247.87 114.58C246.11 115.09 245.61 115.09 245.36 115.09Z" fill="#714615" fill-opacity="1.000000" fill-rule="nonzero"/>
	<path id="Vector" d="M125.35 61.58C124.85 59.81 128.62 59.06 130.62 58.8C131.13 57.79 130.88 57.04 132.88 56.78C132.88 55.27 132.63 53.75 132.63 52.24C133.14 46.18 136.65 39.62 144.18 36.59C152.97 33.31 162.26 36.59 165.02 44.16C166.78 48.96 165.27 54.26 162.51 58.05C159.5 62.08 155.73 63.09 152.97 62.84C148.45 62.34 145.94 57.54 146.69 53C147.19 50.47 148.7 48.2 150.96 46.94L150.96 47.45C149.96 48.45 149.2 49.72 148.95 51.48C148.2 55.02 149.96 58.8 152.97 59.31C157.99 60.57 164.02 53.75 161.25 45.68C159.5 40.13 153.47 39.12 147.19 40.88C144.18 41.89 141.17 43.15 139.91 45.43C138.66 47.19 137.65 49.21 137.4 51.23C137.15 52.75 137.15 54.26 137.15 55.52L136.9 56.03L137.4 55.52C137.4 55.52 137.65 56.03 138.16 55.52C142.17 53.5 141.42 58.05 138.91 58.3C138.91 58.3 139.16 61.83 140.42 65.11C140.67 65.62 141.92 66.37 142.42 66.37C155.98 66.63 162.51 71.17 164.52 67.64C163.01 64.36 163.26 63.09 164.02 63.09C165.77 63.35 167.28 67.13 166.53 70.67C166.53 73.44 166.53 94.14 166.53 94.14C166.53 94.14 160 94.39 157.99 94.39C158.99 92.62 160.25 86.57 161.25 83.29C161.25 86.06 158.74 77.23 155.23 76.22C153.22 74.7 148.45 77.48 142.93 76.47L142.67 93.89C142.67 93.89 137.91 94.14 134.64 93.89C134.14 91.36 136.4 85.3 136.65 83.03C135.14 81.52 137.4 77.48 134.64 74.96C132.13 72.43 132.38 68.9 132.13 67.64C131.88 66.37 131.13 64.1 129.37 65.11C127.61 66.12 127.11 63.09 124.85 64.1C122.59 65.62 124.35 63.35 125.35 61.58Z" fill="#714615" fill-opacity="1.000000" fill-rule="nonzero"/>
	<path id="Vector" d="M123.85 62.08C123.34 60.57 127.11 59.81 129.12 59.56C129.62 58.55 129.37 57.79 131.38 57.79C131.13 56.53 131.13 55.02 131.13 53.5C131.63 47.7 135.14 41.39 142.68 38.61C151.46 35.33 160.75 38.61 163.51 45.93C165.27 50.47 163.77 55.52 161 59.31C157.99 63.35 154.22 64.1 151.46 63.85C146.94 63.35 144.43 58.8 145.19 54.51C145.69 51.99 147.2 49.97 149.45 48.71L149.45 49.21C148.45 50.22 147.7 51.48 147.45 53C146.69 56.28 148.45 59.81 151.46 60.57C156.48 61.83 162.51 55.27 159.75 47.45C157.99 42.15 150.71 39.87 144.43 42.15C141.67 43.15 139.41 44.92 138.16 47.19C136.9 48.96 136.15 50.73 135.9 52.75C135.65 54.26 135.65 56.28 135.65 57.54C135.65 57.54 135.9 57.54 136.4 57.04C140.42 55.27 139.66 59.06 137.15 59.56C137.15 59.56 137.4 63.09 138.66 66.12C138.91 66.63 140.17 67.39 140.67 67.39C154.22 67.64 160.75 71.93 162.76 68.65C163.51 59.81 166.28 65.87 165.27 71.42C165.27 73.95 165.27 93.89 165.27 93.89C165.27 93.89 161.25 94.14 159.25 94.14C160.25 92.37 161.5 85.31 161 82.78C159 81.52 158.49 77.99 156.99 76.47C154.98 74.96 147.2 78.24 141.67 77.23L141.17 93.38C141.17 93.38 138.66 93.63 135.39 93.38C134.89 91.11 137.15 85.31 137.4 83.03C135.9 81.52 138.16 77.73 135.39 75.21C132.88 72.94 133.14 69.4 132.88 68.14C132.63 66.88 131.88 64.86 130.37 65.87C128.62 66.88 128.11 64.1 125.85 64.86C123.34 66.12 122.84 64.1 123.85 62.08Z" fill="#FFFFFF" fill-opacity="1.000000" fill-rule="nonzero"/>
	<path id="Vector" d="M124.1 61.58C124.1 59.81 128.12 60.82 128.87 59.81C129.37 59.06 129.37 58.3 130.88 58.05C131.13 58.05 131.63 57.04 131.63 57.04C131.13 50.73 132.63 45.17 137.91 41.14C141.92 38.11 146.94 37.35 151.71 37.85C163.51 39.12 168.28 53.5 158.24 61.33C155.23 63.85 150.71 63.6 147.7 61.33C146.19 60.32 145.69 58.55 145.19 56.78C144.43 54.01 145.69 51.48 147.7 49.72C150.21 47.45 148.45 49.46 148.45 49.46C145.94 53 145.44 59.31 150.46 60.82C154.22 62.08 157.99 58.05 159.25 54.77C162.26 47.19 157.49 41.14 149.96 40.38C143.93 39.87 138.91 43.91 136.4 48.96C134.89 51.48 134.89 54.51 134.89 57.54C134.89 55.52 141.67 57.04 137.15 58.55C136.9 58.55 136.4 59.56 136.4 59.56C136.9 63.35 136.9 67.13 141.42 67.38C146.19 67.64 150.71 68.39 155.23 69.4C156.99 69.66 162.26 70.92 162.51 67.64C162.51 66.37 163.01 62.84 164.27 65.37C165.02 67.13 164.77 69.4 164.52 71.42C164.27 73.69 164.52 76.22 164.52 78.49C164.52 83.54 164.52 88.84 164.52 93.89C164.77 93.63 165.02 93.13 165.02 92.88C163.51 93.13 159 94.14 159.5 92.12C160.5 89.09 161.25 85.3 160.75 82.28C160.5 81.01 158.74 79 157.99 77.73C157.24 76.22 156.74 74.96 154.98 74.96C150.46 74.7 145.94 76.72 141.42 75.97C141.17 75.97 140.92 76.98 140.67 76.98C140.67 82.53 140.42 88.08 140.42 93.63C140.67 93.38 140.92 92.88 141.17 92.62C140.17 92.62 135.39 93.13 135.39 92.12C135.14 90.35 135.9 88.33 136.4 86.57C137.4 83.03 137.4 80 136.65 76.47C136.15 74.45 133.89 72.94 133.39 70.67C132.89 68.65 133.39 67.13 132.13 65.37C131.63 64.61 130.63 65.37 129.87 65.37C129.37 65.62 128.62 64.86 128.37 64.61C126.36 63.35 122.34 66.88 124.1 61.58C124.1 61.58 123.6 62.34 123.6 62.59C123.09 63.85 122.84 64.61 123.6 65.62C124.1 66.12 125.86 65.37 126.36 65.11C127.11 64.86 127.86 65.62 128.37 65.87C129.87 66.88 130.88 65.11 132.13 66.88C133.14 68.14 132.89 70.16 132.89 71.68C133.14 74.2 135.14 75.21 136.15 77.48C136.9 79 136.15 81.27 136.65 82.78C137.4 86.31 134.64 89.85 135.14 93.63C137.15 93.63 138.91 93.89 140.92 93.63C141.17 93.63 141.67 92.88 141.67 92.62C141.67 87.07 141.92 81.52 141.92 75.97C141.67 76.22 141.42 76.72 141.42 76.98C144.43 77.23 147.45 76.98 150.46 76.47C152.47 76.22 155.73 74.96 157.24 76.98C158.74 79 161 82.53 161 84.8C161 87.58 160.5 91.11 159.25 93.89C159.25 93.89 159 94.14 159.25 94.14C161.25 94.14 163.26 94.14 165.27 93.89C165.52 93.89 166.02 93.13 166.02 92.88C166.02 87.83 166.02 82.53 166.02 77.48C166.02 75.21 166.02 72.94 166.02 70.41C166.02 70.16 166.28 62.08 164.77 63.09C164.02 63.6 163.77 64.36 163.51 65.11C163.01 66.63 163.77 68.14 162.01 68.65C161 68.9 159.5 68.65 158.49 68.65C154.22 68.14 150.21 67.13 145.94 66.63C143.68 66.37 141.17 66.88 139.41 65.11C138.41 63.85 138.16 60.32 137.91 58.55C137.66 58.8 137.4 59.31 137.15 59.56C138.16 59.31 141.17 56.78 139.41 55.52C138.66 55.02 137.15 55.77 136.65 56.28C136.15 56.53 136.4 52.24 136.4 51.48C137.15 43.66 145.69 40.38 152.22 41.39C155.73 41.89 158.49 44.16 159.75 47.19C161.76 52.24 158.74 59.31 152.72 59.31C147.7 59.31 146.69 51.99 149.45 48.96C149.96 48.46 149.96 47.95 149.96 47.45C143.68 51.48 142.68 61.83 151.46 63.6C159.5 65.11 165.02 55.02 165.02 48.46C165.27 36.09 149.45 34.32 141.17 38.36C133.89 41.89 130.88 49.97 131.63 57.79C131.88 57.54 132.13 57.04 132.13 56.78C130.37 57.04 129.87 58.3 129.37 59.56C129.62 59.31 129.87 58.8 129.87 58.55C127.61 58.8 124.1 59.31 124.1 62.08C123.6 62.59 124.1 62.08 124.1 61.58Z" fill="#714615" fill-opacity="1.000000" fill-rule="nonzero"/>
</svg>
