<svg width="20.000000" height="14.000000" viewBox="0 0 20 14" fill="none" xmlns="http://www.w3.org/2000/svg" xmlns:xlink="http://www.w3.org/1999/xlink">
	<desc>
			Created with Pixso.
	</desc>
	<defs/>
	<rect id="Mask" rx="2.000000" width="20.000000" height="14.000000" fill="#FFFFFF" fill-opacity="1.000000"/>
	<rect id="Mask" x="0.250000" y="0.250000" rx="2.000000" width="19.500000" height="13.500000" stroke="#F5F5F5" stroke-opacity="1.000000" stroke-width="0.500000"/>
	<mask id="mask736_2482" mask-type="alpha" maskUnits="userSpaceOnUse" x="0.000000" y="0.000000" width="20.000000" height="14.000000">
		<rect id="Mask" rx="2.000000" width="20.000000" height="14.000000" fill="#FFFFFF" fill-opacity="1.000000"/>
		<rect id="Mask" x="0.250000" y="0.250000" rx="2.000000" width="19.500000" height="13.500000" stroke="#F5F5F5" stroke-opacity="1.000000" stroke-width="0.500000"/>
	</mask>
	<g mask="url(#mask736_2482)">
		<path id="Rectangle 2" d="M0 9.33L20 9.33L20 4.66L0 4.66L0 9.33Z" fill="#0C47B7" fill-opacity="1.000000" fill-rule="evenodd"/>
		<path id="Rectangle 2" d="M20 9.33L20 4.66L0 4.66L0 9.33L20 9.33Z" stroke="#979797" stroke-opacity="0" stroke-width="0.000000"/>
	</g>
	<g mask="url(#mask736_2482)">
		<path id="Rectangle 2" d="M0 14L20 14L20 9.33L0 9.33L0 14Z" fill="#E53B35" fill-opacity="1.000000" fill-rule="evenodd"/>
		<path id="Rectangle 2" d="M20 14L20 9.33L0 9.33L0 14L20 14Z" stroke="#979797" stroke-opacity="0" stroke-width="0.000000"/>
	</g>
</svg>
